<svg width="20" height="24" viewBox="0 0 20 24" fill="none" xmlns="http://www.w3.org/2000/svg">
<path d="M0.585845 9.19483L0.520124 9.16095L0.485244 9.22615C0.245345 9.67453 0.417297 10.2269 0.869306 10.4599L9.44168 14.8788L9.5074 14.9126L9.54228 14.8475L9.94177 14.1008L9.97665 14.0356L9.91093 14.0017L0.585845 9.19483Z" fill="#F3316F" stroke="#F3316F" stroke-width="0.147877"/>
<path d="M0.636277 10.2729L0.68815 10.3256L0.741794 10.2747L8.92333 2.51391C9.33543 2.123 9.34129 1.47633 8.93633 1.07777L8.88455 1.02681L8.83175 1.07669L0.663126 8.79315C0.238814 9.19397 0.226785 9.85697 0.636277 10.2729Z" fill="#F3316F" stroke="#F3316F" stroke-width="0.147877"/>
<path d="M1.52511 12.8336L1.45939 12.7997L1.42451 12.8649L1.02503 13.6115L0.990154 13.6767L1.05587 13.7106L7.89124 17.2341L7.95696 17.268L7.99184 17.2028L8.39132 16.4561L8.4262 16.3909L8.36048 16.357L1.52511 12.8336Z" fill="#F3316F" stroke="#F3316F" stroke-width="0.147877"/>
<path d="M1.13334 9.99503L1.0857 10.0516L1.14151 10.1001L1.78069 10.6555L1.8365 10.704L1.88414 10.6475L5.44506 6.42072L5.4927 6.36417L5.43689 6.31567L4.79771 5.76022L4.7419 5.71172L4.69426 5.76827L1.13334 9.99503Z" fill="#F3316F" stroke="#F3316F" stroke-width="0.147877"/>
<path d="M7.81705 17.1027L7.77762 17.1661L7.84184 17.2039C8.36166 17.51 9.03827 17.3366 9.3478 16.818L10.2675 15.2768C10.5525 14.7993 10.3545 14.1868 9.84378 13.966L9.78431 13.9402L9.7501 13.9952L7.81705 17.1027Z" fill="#F3316F" stroke="#F3316F" stroke-width="0.147877"/>
<path d="M18.3395 11.7224L18.4052 11.7563L18.4401 11.6911C18.68 11.2427 18.5081 10.6903 18.056 10.4573L11.1475 6.89612L11.0818 6.86224L11.0469 6.92743L10.6474 7.67411L10.6125 7.73931L10.6782 7.77319L18.3395 11.7224Z" fill="#F3316F" stroke="#F3316F" stroke-width="0.147877"/>
<path d="M18.2953 14.9698L18.361 15.0037L18.3959 14.9385L18.8024 14.1787L18.8373 14.1135L18.7716 14.0796L9.83513 9.47304L9.76941 9.43916L9.73453 9.50436L9.32801 10.2642L9.29313 10.3294L9.35885 10.3632L18.2953 14.9698Z" fill="#F3316F" stroke="#F3316F" stroke-width="0.147877"/>
<path d="M18.7674 14.1239L18.8216 14.0738L18.8728 14.1269C19.2274 14.4945 19.2116 15.0744 18.8375 15.4221L10.5782 23.0993L10.4564 23.0219L10.9979 21.4993C11.0615 21.3204 11.1681 21.1591 11.3085 21.0291L18.7674 14.1239Z" fill="#F3316F" stroke="#F3316F" stroke-width="0.147877"/>
<path d="M18.209 10.6831L18.2519 10.6231L18.3127 10.6648C18.7353 10.9548 18.8369 11.5283 18.5396 11.9458L10.5306 23.1916L10.3967 23.135L10.8119 21.2001C10.8458 21.0424 10.912 20.8929 11.0064 20.7608L18.209 10.6831Z" fill="#F3316F" stroke="#F3316F" stroke-width="0.147877"/>
<path d="M9.47885 10.3535L9.43838 10.4158L9.37553 10.376C8.86622 10.0539 8.72531 9.38293 9.06227 8.88434L10.1475 7.27865C10.4578 6.81944 11.1044 6.72689 11.5304 7.08069L11.5801 7.12193L11.5449 7.17608L9.47885 10.3535Z" fill="#F3316F" stroke="#F3316F" stroke-width="0.147877"/>
<path d="M1.06103 13.7118L1.12083 13.7514L1.16327 13.6936L8.80983 3.28152C9.29739 2.61761 9.39103 1.75093 9.0557 1.00565L9.03966 0.969994L8.98626 0.851297L8.91039 0.958273L0.811792 12.3779C0.501654 12.8153 0.613815 13.4155 1.06103 13.7118Z" fill="#F3316F" stroke="#F3316F" stroke-width="0.147877"/>
<rect x="9.65314" y="9.43118" width="2" height="8.16108" transform="rotate(-62.7516 9.65314 9.43118)" fill="#F3316F"/>
<rect x="9.65314" y="9.43118" width="2" height="8.16108" transform="rotate(-62.7516 9.65314 9.43118)" fill="#F3316F"/>
<rect x="9.65314" y="9.43118" width="2" height="8.16108" transform="rotate(-62.7516 9.65314 9.43118)" fill="#F3316F"/>
<rect x="1.69141" y="12.9126" width="2.26094" height="8.37385" transform="rotate(-62.7516 1.69141 12.9126)" fill="#F3316F"/>
<rect x="1.69141" y="12.9126" width="2.26094" height="8.37385" transform="rotate(-62.7516 1.69141 12.9126)" fill="#F3316F"/>
<rect x="1.69141" y="12.9126" width="2.26094" height="8.37385" transform="rotate(-62.7516 1.69141 12.9126)" fill="#F3316F"/>
<rect x="13.9753" y="20.0538" width="1.79971" height="7.00981" transform="rotate(-137.343 13.9753 20.0538)" fill="#F3316F"/>
<rect x="13.9753" y="20.0538" width="1.79971" height="7.00981" transform="rotate(-137.343 13.9753 20.0538)" fill="#F3316F"/>
<rect x="13.9753" y="20.0538" width="1.79971" height="7.00981" transform="rotate(-137.343 13.9753 20.0538)" fill="#F3316F"/>
</svg>
