<svg width="137" height="24" viewBox="0 0 137 24" fill="none" xmlns="http://www.w3.org/2000/svg">
<path d="M0.585845 9.19483L0.520124 9.16095L0.485244 9.22615C0.245345 9.67453 0.417297 10.2269 0.869306 10.4599L9.44168 14.8788L9.5074 14.9126L9.54228 14.8475L9.94177 14.1008L9.97665 14.0356L9.91093 14.0017L0.585845 9.19483Z" fill="#F3316F" stroke="#F3316F" stroke-width="0.147877"/>
<path d="M0.636277 10.2729L0.68815 10.3256L0.741794 10.2747L8.92333 2.51391C9.33543 2.123 9.34129 1.47633 8.93633 1.07777L8.88455 1.02681L8.83175 1.07669L0.663126 8.79315C0.238814 9.19397 0.226785 9.85697 0.636277 10.2729Z" fill="#F3316F" stroke="#F3316F" stroke-width="0.147877"/>
<path d="M1.52511 12.8336L1.45939 12.7997L1.42451 12.8649L1.02503 13.6115L0.990154 13.6767L1.05587 13.7106L7.89124 17.2341L7.95696 17.268L7.99184 17.2028L8.39132 16.4561L8.4262 16.3909L8.36048 16.357L1.52511 12.8336Z" fill="#F3316F" stroke="#F3316F" stroke-width="0.147877"/>
<path d="M1.13334 9.99503L1.0857 10.0516L1.14151 10.1001L1.78069 10.6555L1.8365 10.704L1.88414 10.6475L5.44506 6.42072L5.4927 6.36417L5.43689 6.31567L4.79771 5.76022L4.7419 5.71172L4.69426 5.76827L1.13334 9.99503Z" fill="#F3316F" stroke="#F3316F" stroke-width="0.147877"/>
<path d="M7.81705 17.1027L7.77762 17.1661L7.84184 17.2039C8.36166 17.51 9.03827 17.3366 9.3478 16.818L10.2675 15.2768C10.5525 14.7993 10.3545 14.1868 9.84378 13.966L9.78431 13.9402L9.7501 13.9952L7.81705 17.1027Z" fill="#F3316F" stroke="#F3316F" stroke-width="0.147877"/>
<path d="M18.3395 11.7224L18.4052 11.7563L18.4401 11.6911C18.68 11.2427 18.5081 10.6903 18.056 10.4573L11.1475 6.89612L11.0818 6.86224L11.0469 6.92743L10.6474 7.67411L10.6125 7.73931L10.6782 7.77319L18.3395 11.7224Z" fill="#F3316F" stroke="#F3316F" stroke-width="0.147877"/>
<path d="M18.2953 14.9698L18.361 15.0037L18.3959 14.9385L18.8024 14.1787L18.8373 14.1135L18.7716 14.0796L9.83513 9.47304L9.76941 9.43916L9.73453 9.50436L9.32801 10.2642L9.29313 10.3294L9.35885 10.3632L18.2953 14.9698Z" fill="#F3316F" stroke="#F3316F" stroke-width="0.147877"/>
<path d="M18.7674 14.1239L18.8216 14.0738L18.8728 14.1269C19.2274 14.4945 19.2116 15.0744 18.8375 15.4221L10.5782 23.0993L10.4564 23.0219L10.9979 21.4993C11.0615 21.3204 11.1681 21.1591 11.3085 21.0291L18.7674 14.1239Z" fill="#F3316F" stroke="#F3316F" stroke-width="0.147877"/>
<path d="M18.209 10.6831L18.2519 10.6231L18.3127 10.6648C18.7353 10.9548 18.8369 11.5283 18.5396 11.9458L10.5306 23.1916L10.3967 23.135L10.8119 21.2001C10.8458 21.0424 10.912 20.8929 11.0064 20.7608L18.209 10.6831Z" fill="#F3316F" stroke="#F3316F" stroke-width="0.147877"/>
<path d="M9.47885 10.3535L9.43838 10.4158L9.37553 10.376C8.86622 10.0539 8.72531 9.38293 9.06227 8.88434L10.1475 7.27865C10.4578 6.81944 11.1044 6.72689 11.5304 7.08069L11.5801 7.12193L11.5449 7.17608L9.47885 10.3535Z" fill="#F3316F" stroke="#F3316F" stroke-width="0.147877"/>
<path d="M1.06103 13.7118L1.12083 13.7514L1.16327 13.6936L8.80983 3.28152C9.29739 2.61761 9.39103 1.75093 9.0557 1.00565L9.03966 0.969994L8.98626 0.851297L8.91039 0.958273L0.811792 12.3779C0.501654 12.8153 0.613815 13.4155 1.06103 13.7118Z" fill="#F3316F" stroke="#F3316F" stroke-width="0.147877"/>
<path d="M44.4455 10.9846V19.1135H39.9451V11.5494C39.9451 10.1979 39.4313 9.5323 38.486 9.5323C37.2531 9.5323 36.616 10.3795 36.616 12.0133V19.1337H32.2389V11.5292C32.2389 10.2181 31.7457 9.51213 30.8004 9.51213C29.5674 9.51213 28.9098 10.3795 28.9098 11.9931V19.1135H24.4094V6.14358H27.5741L28.2111 7.53538C29.1564 6.44615 30.5333 5.76034 32.0334 5.76034C33.6363 5.76034 34.972 6.46632 35.7735 7.67657C36.7188 6.50666 38.1572 5.76034 39.8012 5.76034C42.5755 5.76034 44.4455 7.93879 44.4455 10.9846ZM60.351 12.5176C60.351 12.9008 60.3099 13.3043 60.2483 13.7077H50.5488C50.857 15.2003 51.8023 15.9668 53.2203 15.9668C54.2683 15.9668 55.1519 15.5029 55.5835 14.7566H60.0633C59.1592 17.7015 56.5082 19.5572 53.2203 19.5572C49.1514 19.5572 46.11 16.5921 46.11 12.6386C46.11 8.66495 49.1103 5.74017 53.2203 5.74017C57.433 5.74017 60.351 8.70529 60.351 12.5176ZM50.631 11.2267H55.9123C55.5218 9.93572 54.5765 9.22973 53.2203 9.22973C51.9051 9.22973 51.0009 9.93572 50.631 11.2267ZM70.7903 15.2205V19.1337H67.6873C64.7898 19.1337 63.0431 17.3788 63.0431 14.4943V9.59281H60.6593V8.54392L66.516 2.35145H67.4407V6.14358H70.7287V9.59281H67.564V13.7278C67.564 14.6557 68.1189 15.2205 69.0847 15.2205H70.7903ZM86.4699 6.14358V19.1135H82.9969L82.6065 18.1856C81.5174 19.053 80.1611 19.5572 78.6609 19.5572C74.6537 19.5572 71.7973 16.6526 71.7973 12.6184C71.7973 8.60443 74.6537 5.74017 78.6609 5.74017C80.2022 5.74017 81.579 6.24444 82.6476 7.13196L83.0997 6.14358H86.4699ZM82.1749 12.6386C82.1749 10.9443 80.9214 9.69366 79.2569 9.69366C77.5512 9.69366 76.3388 10.9644 76.3388 12.6386C76.3388 14.333 77.5923 15.6037 79.2569 15.6037C80.942 15.6037 82.1749 14.333 82.1749 12.6386ZM93.5471 19.5572C89.992 19.5572 87.8137 17.7015 87.7726 14.8776H92.1087C92.1087 15.8256 92.7662 16.2694 93.6293 16.2694C94.2869 16.2694 94.9034 15.9265 94.9034 15.2608C94.9034 14.5145 93.917 14.2926 92.6635 14.0909C90.6291 13.7682 87.9576 13.1631 87.9576 10.0164C87.9576 7.41435 90.1975 5.74017 93.5471 5.74017C96.8762 5.74017 99.0339 7.49503 99.0956 10.1374H94.8829C94.8829 9.31042 94.328 8.92717 93.506 8.92717C92.7868 8.92717 92.2936 9.27007 92.2936 9.8752C92.2936 10.6215 93.3005 10.7829 94.5335 11.0048C96.6091 11.3678 99.3422 11.7914 99.3422 15.0793C99.3216 17.7822 97.0201 19.5572 93.5471 19.5572ZM100.431 12.6386C100.431 8.60443 103.493 5.71999 107.768 5.71999C112.021 5.71999 115.104 8.62461 115.104 12.6386C115.104 16.6526 112.021 19.5572 107.768 19.5572C103.493 19.5572 100.431 16.6526 100.431 12.6386ZM107.747 15.5432C109.391 15.5432 110.562 14.3733 110.562 12.6386C110.562 10.9241 109.391 9.73401 107.747 9.73401C106.103 9.73401 104.932 10.9039 104.932 12.6386C104.932 14.3733 106.124 15.5432 107.747 15.5432ZM125.461 9.59281H122.522V19.1337H118.022V9.59281H115.864V6.14358H118.084V5.11487C118.084 2.51282 119.522 1 122.296 1H125.44V4.42906H123.447C122.769 4.42906 122.379 4.8123 122.379 5.47794V6.14358H125.461V9.59281ZM136.352 15.2205V19.1337H133.249C130.352 19.1337 128.605 17.3788 128.605 14.4943V9.59281H126.221V8.54392L132.078 2.37162H133.003V6.16375H136.291V9.61298H133.126V13.748C133.126 14.6759 133.681 15.2407 134.647 15.2407L136.352 15.2205Z" fill="#F3316F"/>
<rect x="9.65314" y="9.43118" width="2" height="8.16108" transform="rotate(-62.7516 9.65314 9.43118)" fill="#F3316F"/>
<rect x="9.65314" y="9.43118" width="2" height="8.16108" transform="rotate(-62.7516 9.65314 9.43118)" fill="#F3316F"/>
<rect x="9.65314" y="9.43118" width="2" height="8.16108" transform="rotate(-62.7516 9.65314 9.43118)" fill="#F3316F"/>
<rect x="1.69141" y="12.9126" width="2.26094" height="8.37385" transform="rotate(-62.7516 1.69141 12.9126)" fill="#F3316F"/>
<rect x="1.69141" y="12.9126" width="2.26094" height="8.37385" transform="rotate(-62.7516 1.69141 12.9126)" fill="#F3316F"/>
<rect x="1.69141" y="12.9126" width="2.26094" height="8.37385" transform="rotate(-62.7516 1.69141 12.9126)" fill="#F3316F"/>
<rect x="13.9753" y="20.0538" width="1.79971" height="7.00981" transform="rotate(-137.343 13.9753 20.0538)" fill="#F3316F"/>
<rect x="13.9753" y="20.0538" width="1.79971" height="7.00981" transform="rotate(-137.343 13.9753 20.0538)" fill="#F3316F"/>
<rect x="13.9753" y="20.0538" width="1.79971" height="7.00981" transform="rotate(-137.343 13.9753 20.0538)" fill="#F3316F"/>
</svg>
